<svg width="300" height="300" viewBox="0 0 300 300" fill="none" xmlns="http://www.w3.org/2000/svg">
  <rect width="300" height="300" fill="#f8f9fa"/>
  
  <!-- 盘子轮廓 -->
  <path d="M30,180 A120,60 0 0,0 270,180 A120,60 0 0,0 30,180 Z" 
        stroke="#94a3b8" stroke-width="2" fill="transparent"/>
  
  <!-- 食物项目 -->
  <path d="M90,195 A30,15 0 0,0 150,195 A30,15 0 0,0 90,195 Z"
        fill="transparent" stroke="#94a3b8" stroke-width="2"/>
  <path d="M165,195 A24,12 0 0,0 210,195 A24,12 0 0,0 165,195 Z"
        fill="transparent" stroke="#94a3b8" stroke-width="2"/>
  
  <!-- 叉子 -->
  <path d="M105,90 L105,150 M120,90 L120,150 M135,90 L135,150 M120,150 L120,165"
        stroke="#94a3b8" stroke-width="2" fill="transparent"/>
  
  <!-- 刀 -->
  <path d="M195,90 L195,165 M195,90 C210,96 210,114 195,120"
        stroke="#94a3b8" stroke-width="2" fill="transparent"/>
  
  <!-- 蒸汽 -->
  <path d="M120,165 Q105,150 120,135 Q135,120 120,105"
        stroke="#94a3b8" stroke-width="1.4" fill="transparent" stroke-linecap="round"/>
  <path d="M150,165 Q165,150 150,135 Q135,120 150,105"
        stroke="#94a3b8" stroke-width="1.4" fill="transparent" stroke-linecap="round"/>
  <path d="M180,165 Q195,150 180,135 Q165,120 180,105"
        stroke="#94a3b8" stroke-width="1.4" fill="transparent" stroke-linecap="round"/>
  
  <!-- 中央图标 -->
  <g transform="translate(135,60) scale(0.08,0.08)">
    <path d="M416 96.6c-53.9 9-65.9 14.4-131.1 14.4-64.7 0-76.9-5.4-131.1-14.4c-17.7-3-35.4 7.3-40.7 24.6l-4.1 52.3 134 26.5 134-26.5-4.1-52.3c-5.2-17.3-23-27.6-40.7-24.6zM37.9 225.1l-.2-15.9c-.8-52.7 42.4-95.9 95.1-95.9c5 0 9.9.4 14.8 1.1C107.2 129.9 86 184.2 86 184.2s60.3-24.9 144-24.9h.5c83.7 0 144 24.9 144 24.9s-21.2-54.3-61.6-69.8c4.9-.7 9.8-1.1 14.8-1.1c52.7 0 95.9 43.2 95.1 95.9l-.2 15.9c19.6 9.9 32.4 30.3 32.4 52.9v160c0 4.4-3.6 8-8 8h-48c-4.4 0-8-3.6-8-8V288l-15.3-3.2c-3.7 88.7-55.8 143.9-138.6 143.9-.5 0-1.1 0-1.6 0-.5 0-1.1 0-1.6 0C162.8 428.8 110.7 373.5 107 285l-15.3 3.2v150c0 4.4-3.6 8-8 8h-48c-4.4 0-8-3.6-8-8V278c0-22.6 12.8-43.1 32.4-52.9z" 
          fill="#94a3b8"/>
  </g>
  
  <!-- 噪点覆盖 -->
  <rect width="300" height="300" fill="url(#noise)" opacity="0.05"/>
  
  <defs>
    <pattern id="noise" x="0" y="0" width="100" height="100" patternUnits="userSpaceOnUse">
      <path d="M0 0 L100 0 L100 100 L0 100 Z" fill="#000000" fill-opacity="0.05"></path>
    </pattern>
  </defs>
</svg>